<?xml version="1.0" encoding="UTF-8" standalone="no"?>
<svg
   xmlns:dc="http://purl.org/dc/elements/1.1/"
   xmlns:cc="http://creativecommons.org/ns#"
   xmlns:rdf="http://www.w3.org/1999/02/22-rdf-syntax-ns#"
   xmlns:svg="http://www.w3.org/2000/svg"
   xmlns="http://www.w3.org/2000/svg"
   xmlns:sodipodi="http://sodipodi.sourceforge.net/DTD/sodipodi-0.dtd"
   xmlns:inkscape="http://www.inkscape.org/namespaces/inkscape"
   version="1.0"
   width="626.000000pt"
   height="626.000000pt"
   viewBox="0 0 626.000000 626.000000"
   preserveAspectRatio="xMidYMid meet"
   id="svg3494"
   inkscape:version="0.91 r13725"
   sodipodi:docname="simbolo_de_advertencia_de_bomba_318_34124.svg">
  <defs
     id="defs3514" />
  <sodipodi:namedview
     pagecolor="#ffffff"
     bordercolor="#666666"
     borderopacity="1"
     objecttolerance="10"
     gridtolerance="10"
     guidetolerance="10"
     inkscape:pageopacity="0"
     inkscape:pageshadow="2"
     inkscape:window-width="1366"
     inkscape:window-height="705"
     id="namedview3512"
     showgrid="false"
     inkscape:zoom="0.51"
     inkscape:cx="389.10169"
     inkscape:cy="459.59248"
     inkscape:window-x="-8"
     inkscape:window-y="-8"
     inkscape:window-maximized="1"
     inkscape:current-layer="svg3494" />
  <metadata
     id="metadata3496">
Created by potrace 1.13, written by Peter Selinger 2001-2015
<rdf:RDF>
  <cc:Work
     rdf:about="">
    <dc:format>image/svg+xml</dc:format>
    <dc:type
       rdf:resource="http://purl.org/dc/dcmitype/StillImage" />
  </cc:Work>
</rdf:RDF>
</metadata>
  <g
     transform="matrix(0.08043885,0,0,-0.08122344,10.207311,530.37704)"
     id="g3498"
     style="fill:#000000;stroke:none">
    <path
       d="m 4330,6241 c -19,-10 -42,-29 -52,-42 -42,-56 -148,-347 -148,-405 0,-41 33,-103 69,-131 33,-26 92,-35 138,-22 66,18 97,63 155,219 74,200 78,216 71,267 -14,106 -137,166 -233,114 z"
       id="path3500"
       inkscape:connector-curvature="0" />
    <path
       d="m 3435,6213 c -62,-17 -120,-98 -117,-165 1,-53 20,-83 107,-173 42,-44 93,-100 113,-125 100,-125 135,-150 207,-150 58,0 95,21 129,73 42,66 37,126 -18,207 -44,66 -228,270 -280,311 -28,22 -100,34 -141,22 z"
       id="path3502"
       inkscape:connector-curvature="0" />
    <path
       d="m 5320,5869 c -645,-262 -928,-386 -946,-414 -45,-68 -31,-149 36,-209 72,-65 131,-62 315,17 300,128 422,179 635,265 299,120 312,126 337,153 65,71 56,201 -17,263 -52,43 -86,36 -360,-75 z"
       id="path3504"
       inkscape:connector-curvature="0" />
    <path
       d="m 3838,5389 c -63,-15 -324,-151 -430,-225 -135,-94 -348,-283 -348,-310 0,-7 23,-15 63,-19 98,-11 289,-52 448,-97 l 146,-41 74,48 c 41,27 126,75 190,106 172,86 214,143 213,290 0,47 -7,79 -23,112 -28,57 -96,119 -149,135 -45,14 -130,14 -184,1 z"
       id="path3506"
       inkscape:connector-curvature="0" />
    <path
       d="m 4645,5026 c -76,-34 -116,-120 -95,-208 15,-62 44,-84 175,-131 55,-19 147,-56 204,-81 124,-55 169,-59 227,-20 49,33 60,49 73,100 22,85 -28,167 -123,203 -28,11 -98,40 -155,65 -114,50 -221,86 -255,86 -11,-1 -34,-7 -51,-14 z"
       id="path3508"
       inkscape:connector-curvature="0" />
    <path
       d="m 2880,4631 c -8,-5 -87,-11 -175,-14 -308,-10 -596,-85 -895,-231 C 1559,4263 1386,4138 1185,3934 1004,3751 875,3574 768,3359 590,3003 511,2648 523,2253 529,2032 547,1901 594,1724 704,1314 894,987 1195,684 1547,331 1952,121 2455,33 2586,10 2632,7 2825,7 c 242,0 387,17 595,72 576,153 1077,529 1387,1041 372,615 434,1387 166,2055 -251,624 -769,1113 -1408,1330 -134,45 -383,100 -525,115 -58,6 -114,13 -125,15 -11,2 -27,0 -35,-4 z M 2178,3578 c 36,-7 99,-30 143,-52 162,-84 264,-200 327,-371 23,-61 26,-86 27,-195 0,-107 -4,-135 -24,-195 -13,-38 -35,-87 -48,-107 -12,-21 -23,-42 -23,-47 0,-22 -169,-179 -224,-209 -114,-61 -178,-77 -316,-77 -137,1 -198,16 -310,79 -86,47 -208,176 -254,268 -157,313 -33,685 284,853 113,59 272,80 418,53 z"
       id="path3510"
       inkscape:connector-curvature="0" />
  </g>
  <rect
     style="fill:#ffffff"
     id="rect3524"
     width="253.54802"
     height="130.92082"
     x="243.47717"
     y="14.048838" />
  <rect
     style="fill:#ffffff"
     id="rect3526"
     width="200.23184"
     height="55.68578"
     x="258.28723"
     y="97.577515" />
  <rect
     style="fill:#ffffff"
     id="rect3528"
     width="62.202198"
     height="27.84289"
     x="386.24603"
     y="140.23044" />
</svg>
