<?xml version="1.0" encoding="UTF-8" standalone="no"?>
<svg
   xmlns:dc="http://purl.org/dc/elements/1.1/"
   xmlns:cc="http://creativecommons.org/ns#"
   xmlns:rdf="http://www.w3.org/1999/02/22-rdf-syntax-ns#"
   xmlns:svg="http://www.w3.org/2000/svg"
   xmlns="http://www.w3.org/2000/svg"
   xmlns:sodipodi="http://sodipodi.sourceforge.net/DTD/sodipodi-0.dtd"
   xmlns:inkscape="http://www.inkscape.org/namespaces/inkscape"
   version="1.0"
   width="397.000000pt"
   height="470.000000pt"
   viewBox="0 0 397.000000 470.000000"
   preserveAspectRatio="xMidYMid meet"
   id="svg2"
   inkscape:version="0.91 r13725"
   sodipodi:docname="can_stock_photo_csp17963537.svg">
  <defs
     id="defs36">
    <clipPath
       clipPathUnits="userSpaceOnUse"
       id="clipPath3394">
      <path
         style="fill:none;fill-rule:evenodd;stroke:#000000;stroke-width:8.19069481px;stroke-linecap:butt;stroke-linejoin:miter;stroke-opacity:1"
         d="m 4097.4324,2167.4175 -4140.55497,490 -10.482417,-2570 4151.037387,-20 z"
         id="path3396"
         inkscape:connector-curvature="0"
         clip-path="none" />
    </clipPath>
  </defs>
  <sodipodi:namedview
     pagecolor="#ffffff"
     bordercolor="#666666"
     borderopacity="1"
     objecttolerance="10"
     gridtolerance="10"
     guidetolerance="10"
     inkscape:pageopacity="0"
     inkscape:pageshadow="2"
     inkscape:window-width="1366"
     inkscape:window-height="705"
     id="namedview34"
     showgrid="false"
     inkscape:zoom="0.8"
     inkscape:cx="248.125"
     inkscape:cy="293.75"
     inkscape:window-x="-8"
     inkscape:window-y="-8"
     inkscape:window-maximized="1"
     inkscape:current-layer="svg2" />
  <metadata
     id="metadata4">
Created by potrace 1.13, written by Peter Selinger 2001-2015
<rdf:RDF>
  <cc:Work
     rdf:about="">
    <dc:format>image/svg+xml</dc:format>
    <dc:type
       rdf:resource="http://purl.org/dc/dcmitype/StillImage" />
    <dc:title></dc:title>
  </cc:Work>
</rdf:RDF>
</metadata>
  <g
     transform="matrix(-0.09539784,0,0,-0.1,390.8862,342.74175)"
     id="g6"
     style="fill:#000000;stroke:none"
     clip-path="url(#clipPath3394)">
    <path
       d="m 123,4680 c -18,-10 -39,-29 -47,-42 -19,-30 -81,-377 -73,-410 9,-36 65,-87 103,-94 20,-4 59,2 105,16 41,12 88,24 105,27 18,3 132,-16 263,-42 l 231,-47 102,51 c 149,73 248,94 413,88 110,-4 145,-9 225,-35 235,-77 440,-269 524,-493 53,-141 71,-323 44,-454 -11,-56 -10,-59 12,-77 13,-10 93,-85 178,-166 85,-81 169,-157 186,-169 24,-17 146,-45 563,-127 293,-59 551,-106 573,-106 42,0 117,26 240,83 87,40 105,57 96,91 -8,32 -38,43 -698,261 -293,97 -547,183 -565,193 -31,17 -656,602 -650,609 2,1 93,-15 203,-37 166,-34 202,-44 217,-63 50,-63 55,-67 94,-67 44,0 64,18 147,127 46,62 46,62 96,61 87,-2 129,64 76,117 -13,13 -37,27 -53,31 -44,11 -50,19 -73,115 -28,111 -55,149 -108,149 -22,0 -50,-10 -72,-25 l -35,-24 -508,82 c -490,80 -509,84 -533,110 -28,30 -57,34 -100,13 -27,-13 -68,-8 -484,59 -250,41 -469,77 -487,80 -17,3 -58,26 -90,51 -109,86 -160,101 -220,64 z"
       id="path8"
       inkscape:connector-curvature="0" />
    <path
       d="m 1140,4176 c -307,-65 -543,-290 -620,-590 -27,-108 -27,-273 0,-382 41,-165 153,-337 285,-440 76,-60 219,-127 312,-148 151,-34 357,-14 495,47 218,97 383,289 450,524 29,103 31,293 4,398 -42,161 -142,320 -266,423 -72,60 -213,132 -305,157 -84,22 -273,28 -355,11 z m 103,-248 c 4,-46 7,-142 7,-214 0,-114 -2,-133 -17,-138 -9,-4 -20,-3 -23,1 -8,9 -196,282 -224,325 l -18,27 51,26 c 58,29 141,53 187,54 l 31,1 6,-82 z m 256,52 c 126,-44 126,-42 50,-152 -157,-230 -175,-253 -195,-250 -10,2 -20,5 -21,6 -1,0 1,97 4,214 l 6,212 36,0 c 20,0 74,-13 120,-30 z m -494,-266 c 61,-80 117,-155 127,-167 13,-18 14,-25 4,-39 -12,-16 -28,-12 -212,53 -109,38 -200,72 -202,74 -16,15 135,226 161,224 7,0 62,-65 122,-145 z m 752,93 c 26,-30 63,-81 80,-113 l 32,-60 -196,-70 c -108,-38 -201,-69 -206,-69 -6,0 -14,7 -20,16 -7,12 19,52 119,182 71,92 132,167 135,167 4,0 29,-24 56,-53 z m 154,-333 c 9,-58 3,-191 -10,-212 -6,-10 -39,-2 -343,89 -58,17 -68,23 -68,42 0,21 18,28 203,83 111,34 203,60 205,59 1,-1 7,-29 13,-61 z m -1009,-1 c 176,-51 198,-60 198,-79 0,-18 -23,-28 -206,-83 -114,-34 -209,-60 -211,-57 -3,2 -7,40 -10,84 -7,94 4,192 20,192 7,1 101,-25 209,-57 z m 821,-268 c 107,-37 137,-52 137,-65 0,-40 -130,-210 -161,-210 -4,0 -65,74 -134,165 -108,141 -124,168 -115,184 10,20 11,20 73,-3 34,-13 124,-45 200,-71 z m -585,72 c 8,-9 -22,-56 -121,-186 l -132,-173 -55,60 c -52,56 -120,166 -110,175 10,8 375,135 391,136 9,1 21,-5 27,-12 z m 112,-195 c 0,-71 -3,-170 -6,-220 l -7,-92 -41,7 c -54,8 -171,47 -202,68 -22,14 -24,19 -12,36 7,10 60,88 118,174 83,121 110,154 128,155 22,0 22,-2 22,-128 z m 243,-41 c 65,-93 117,-173 117,-179 0,-25 -243,-104 -260,-85 -9,10 -21,418 -13,427 22,21 49,-7 156,-163 z"
       id="path10"
       inkscape:connector-curvature="0" />
    <path
       d="m 1142,3954 c -29,-8 -66,-21 -82,-29 l -29,-15 87,-126 c 57,-82 88,-119 90,-107 1,10 -1,79 -5,154 l -8,136 -53,-13 z"
       id="path12"
       inkscape:connector-curvature="0" />
    <path
       d="m 1386,3962 c -3,-3 -6,-73 -6,-155 l 0,-150 85,124 c 47,68 85,126 85,130 0,13 -154,62 -164,51 z"
       id="path14"
       inkscape:connector-curvature="0" />
    <path
       d="m 1612,3683 c -50,-64 -90,-119 -88,-120 4,-4 268,88 278,96 9,7 -49,96 -79,124 -20,17 -22,15 -111,-100 z"
       id="path16"
       inkscape:connector-curvature="0" />
    <path
       d="m 132,2329 c -23,-12 -49,-34 -57,-49 -22,-42 -79,-371 -71,-405 4,-16 23,-44 42,-62 45,-42 86,-43 204,-8 l 85,26 242,-49 242,-49 47,29 c 210,132 502,152 746,54 144,-59 294,-184 379,-316 27,-41 56,-84 66,-96 33,-38 545,-519 587,-551 33,-26 159,-71 646,-234 333,-110 609,-204 613,-209 5,-4 -36,-27 -90,-50 -180,-80 -109,-84 -728,40 -299,60 -551,113 -559,117 -7,4 -100,90 -207,191 -188,178 -208,192 -209,141 0,-21 363,-360 408,-381 20,-9 279,-64 575,-123 l 539,-106 54,16 c 65,19 240,97 266,119 23,20 23,48 0,70 -10,9 -288,105 -618,215 -330,109 -613,205 -629,214 -34,18 -655,599 -655,612 0,1 93,-16 207,-40 158,-32 209,-46 217,-59 41,-69 83,-88 134,-62 16,8 51,46 78,82 69,97 77,104 117,97 45,-7 95,19 103,54 10,36 -16,75 -63,93 -57,22 -60,26 -73,82 -42,180 -94,224 -186,161 l -39,-26 -480,77 c -264,43 -494,82 -511,86 -17,4 -42,19 -57,34 -30,30 -44,32 -90,10 -32,-15 -51,-13 -473,55 -567,92 -536,85 -586,128 -105,88 -152,104 -216,72 z m 97,-43 c 15,-8 47,-31 71,-51 24,-20 56,-43 70,-50 15,-8 249,-50 520,-94 462,-76 494,-80 527,-66 33,14 37,14 64,-9 35,-30 -13,-20 571,-116 515,-84 510,-84 565,-40 27,21 48,17 64,-12 13,-23 49,-151 45,-156 -2,-1 -16,27 -31,62 -32,75 -55,89 -89,57 -36,-34 -80,-35 -257,-6 -849,137 -882,144 -895,180 -5,13 -10,12 -34,0 -16,-8 -41,-15 -56,-15 -54,0 -960,151 -993,166 -18,8 -54,32 -80,54 -51,43 -108,70 -131,62 -8,-2 -23,-11 -32,-20 -29,-25 -23,14 7,43 28,28 54,31 94,11 z"
       id="path18"
       inkscape:connector-curvature="0" />
    <path
       d="m 1184,1830 c -33,-5 -96,-20 -140,-35 -273,-91 -467,-307 -529,-589 -24,-106 -17,-303 14,-392 91,-267 262,-444 510,-529 405,-138 855,79 1000,481 183,504 -172,1039 -707,1068 -48,3 -114,1 -148,-4 z m 321,-60 c 128,-40 222,-97 316,-190 148,-147 216,-295 226,-493 C 2060,843 1981,646 1805,482 1557,250 1186,215 888,396 811,443 707,545 655,625 600,708 553,839 539,948 c -24,177 22,365 127,519 110,163 282,279 473,319 96,20 277,12 366,-16 z"
       id="path20"
       inkscape:connector-curvature="0" />
    <path
       d="m 1145,1760 c -135,-27 -259,-95 -366,-200 -87,-85 -145,-178 -186,-295 -25,-73 -27,-92 -27,-225 0,-133 2,-152 27,-225 87,-250 283,-429 534,-490 109,-26 291,-18 398,19 218,74 387,242 460,456 55,161 55,318 1,478 -78,229 -276,412 -512,472 -81,21 -249,26 -329,10 z m 99,-192 c 7,-101 8,-338 2,-338 -2,0 -11,-3 -19,-6 -11,-4 -50,46 -137,171 -67,97 -120,178 -119,179 31,28 190,84 240,85 26,1 26,0 33,-91 z m 201,77 c 83,-22 167,-62 163,-77 -6,-24 -233,-348 -243,-348 -32,1 -34,15 -28,228 7,243 -3,225 108,197 z m -425,-306 c 117,-153 130,-174 116,-187 -13,-13 -26,-11 -118,22 -249,88 -292,104 -295,113 -5,15 70,130 116,178 24,25 45,45 47,45 1,0 62,-77 134,-171 z m 739,114 c 28,-32 64,-83 81,-114 27,-52 28,-57 13,-64 -10,-4 -101,-36 -202,-72 -164,-57 -186,-63 -199,-49 -18,18 -30,-3 128,205 63,83 118,151 122,151 3,0 29,-26 57,-57 z m -401,-277 c 54,-28 75,-62 79,-124 3,-45 0,-64 -16,-90 -42,-67 -125,-90 -197,-56 -76,36 -105,134 -62,208 40,67 130,96 196,62 z m -557,-26 c 320,-97 300,-90 297,-112 -3,-17 -33,-29 -206,-81 -111,-33 -205,-57 -208,-54 -10,10 -17,163 -10,221 4,31 12,56 18,56 6,0 55,-13 109,-30 z m 1102,13 c 19,-69 18,-220 -3,-252 -5,-10 -57,2 -206,46 -188,55 -199,60 -199,82 0,23 12,28 190,82 105,32 195,58 202,58 6,1 14,-7 16,-16 z M 1138,923 c 8,-14 -17,-53 -121,-186 L 887,568 841,614 c -48,48 -112,143 -115,172 -1,12 45,32 189,84 105,38 195,69 202,69 7,1 16,-7 21,-16 z m 517,-48 c 101,-36 190,-68 199,-71 14,-5 12,-14 -15,-64 -29,-54 -122,-170 -137,-170 -4,0 -65,76 -136,170 -108,143 -127,172 -116,185 7,8 15,15 17,15 3,0 88,-29 188,-65 z m -416,-24 c 11,-7 13,-46 9,-215 -3,-114 -8,-210 -12,-213 -12,-12 -129,17 -198,49 -38,17 -68,33 -68,35 0,2 38,59 84,126 47,67 101,146 121,175 38,55 42,57 64,43 z m 248,-155 c 62,-90 115,-171 119,-180 7,-19 -65,-56 -161,-81 -111,-28 -101,-46 -108,198 -5,211 -3,226 28,227 6,0 61,-74 122,-164 z"
       id="path22"
       inkscape:connector-curvature="0" />
    <path
       d="m 1106,1590 c -32,-10 -62,-22 -67,-27 -9,-9 139,-225 160,-231 12,-4 13,7 8,64 -4,38 -7,102 -7,142 0,83 1,82 -94,52 z"
       id="path24"
       inkscape:connector-curvature="0" />
    <path
       d="m 1380,1438 c 0,-72 2,-129 4,-127 14,15 147,213 149,222 1,6 -25,16 -58,23 -103,22 -95,32 -95,-118 z"
       id="path26"
       inkscape:connector-curvature="0" />
    <path
       d="m 1632,1356 c -66,-88 -69,-94 -49,-100 41,-11 73,-6 150,22 l 77,28 -38,60 c -63,97 -59,97 -140,-10 z"
       id="path28"
       inkscape:connector-curvature="0" />
    <path
       d="m 1254,1159 c -16,-5 -41,-20 -55,-35 -20,-21 -24,-36 -24,-84 0,-48 4,-63 24,-84 38,-41 92,-51 144,-28 100,44 101,174 3,222 -46,22 -48,22 -92,9 z"
       id="path30"
       inkscape:connector-curvature="0" />
    <path
       d="m 2085,1320 c 31,-100 37,-141 42,-262 l 6,-137 146,-139 c 80,-76 173,-163 206,-193 l 61,-55 544,-109 544,-108 46,16 c 102,36 165,69 150,77 -8,4 -262,90 -565,190 -302,101 -570,193 -595,206 -25,13 -65,42 -90,66 -61,58 -393,371 -454,427 -41,40 -47,43 -41,21 z"
       id="path32"
       inkscape:connector-curvature="0" />
  </g>
</svg>
